<svg width="51" height="45" viewBox="0 0 51 45" fill="none" xmlns="http://www.w3.org/2000/svg">
<path opacity="0.5" d="M30.99 0.440387C30.99 0.440387 44.418 -0.430793 44.418 13.549C44.418 22.863 46.878 26.1197 48.522 27.2599C49.122 27.675 49.044 28.5637 48.414 28.9321C46.602 29.9903 43.332 31.3994 39.3 30.9024C39.036 30.8674 38.91 31.2006 39.132 31.341L48.51 36.6265C50.052 37.4977 51 39.0997 51 40.8362V41.9354C51 43.1516 49.992 44.1339 48.744 44.1339H35.388L21.102 38.135L24.492 1.66238C27.774 0.235747 30.99 0.440387 30.99 0.440387Z" fill="#EA3A60"/>
<path d="M3.55182 14.612C3.99582 14.2846 4.28382 13.811 4.28982 13.2731C4.31982 10.227 5.33382 0.439453 17.2258 0.439453C17.3878 0.439453 17.5378 0.4453 17.6938 0.451147C17.8498 0.4453 17.9998 0.439453 18.1618 0.439453C30.0478 0.439453 31.0678 10.2153 31.0918 13.2673C31.0978 13.7993 31.3678 14.2788 31.8058 14.5945C33.0658 15.5066 33.7198 17.0501 33.1258 18.4651C32.2258 20.6108 30.3958 22.4292 29.4958 23.2302C29.1598 23.5284 28.9798 23.9552 28.9618 24.3937C28.7758 29.3342 26.6758 31.1116 25.3498 31.7548C24.5578 32.1348 24.0298 32.8423 24.0298 33.655C24.0298 34.6723 25.1398 35.4441 26.0158 35.9937L31.4758 37.1806C33.7558 37.6776 35.3818 39.6479 35.3818 41.9282V44.1265H9.66582L6.53382 25.7911C6.47982 25.3526 6.43782 24.8965 6.41982 24.3995C6.40182 23.9552 6.22182 23.5342 5.88582 23.236C4.98582 22.4292 3.13182 20.5933 2.23782 18.43C1.66182 17.0209 2.31582 15.5241 3.55182 14.612Z" fill="#EA3A60"/>
<path d="M-0.00025177 34.702C-0.00025177 39.9057 4.33175 44.1271 9.67175 44.1271C15.0118 44.1271 19.3438 39.9057 19.3438 34.702C19.3438 29.4983 15.0118 25.2769 9.67175 25.2769C4.33175 25.2769 -0.00025177 29.4983 -0.00025177 34.702Z" fill="white"/>
<path d="M9.67169 40.7016C10.1577 40.7016 10.5537 40.3157 10.5537 39.8421V29.5631C10.5537 29.0895 10.1577 28.7095 9.67169 28.7095C9.18567 28.7095 8.78966 29.0895 8.78966 29.5631V39.848C8.79566 40.3157 9.18567 40.7016 9.67169 40.7016Z" fill="#EA3A60"/>
<path d="M4.39812 35.5615H14.9461C15.4321 35.5615 15.8281 35.1757 15.8281 34.708C15.8281 34.2345 15.4321 33.8486 14.9461 33.8486H4.39211C3.90611 33.8486 3.51011 34.2345 3.51011 34.708C3.51611 35.1757 3.91211 35.5615 4.39812 35.5615Z" fill="#EA3A60"/>
</svg>
