<svg width="1920" height="1056" viewBox="0 0 1920 1056" fill="none" xmlns="http://www.w3.org/2000/svg">
<path d="M-1.00058 5.99964C-1.00058 5.99964 81.4994 -26.4914 178.999 64.9996C244.399 126.366 244.999 169.1 268.26 273.148C296.76 400.636 383.578 590.162 599.999 499C715.883 450.186 706.099 582.652 636.999 714C593.205 797.24 503.14 888.367 479.999 906C321.216 1026.99 86.3324 1014.28 -2.00058 991C-89.9946 967.809 -21.9936 10.4996 -1.00058 5.99964Z" fill="#0898E7"/>
<path d="M1926 246C1926 246 1618.41 162.563 1393 455C1288.82 590.158 1266.5 679.01 1271 823C1277.75 1038.96 1311.92 1091.71 1488 1033C1582.47 1001.5 1683 963.999 1683 963.999C1739 941.999 1900.01 902.08 1927 907C1953.99 911.92 1981.48 247.5 1926 246Z" fill="#FAAE1B"/>
</svg>
