<svg width="118" height="32" viewBox="0 0 118 32" fill="none" xmlns="http://www.w3.org/2000/svg">
<path fill-rule="evenodd" clip-rule="evenodd" d="M6.37825 0.999584H111.622C114.557 0.999584 116.937 3.2383 116.937 5.99958V25.9996C116.937 28.7614 114.557 30.9996 111.622 30.9996H6.37825C3.44277 30.9996 1.06306 28.7614 1.06306 25.9996V5.99958C1.06306 3.2383 3.44277 0.999584 6.37825 0.999584Z" fill="#FFA740"/>
<path fill-rule="evenodd" clip-rule="evenodd" d="M28.2918 13.7717C28.2945 13.8206 28.2909 13.8706 28.2785 13.9195L27.1682 18.32C27.1122 18.541 26.9116 18.6975 26.6811 18.6985L20.0194 18.7319C20.0186 18.7319 20.0177 18.7319 20.0169 18.7319H13.3552C13.1235 18.7319 12.9215 18.576 12.8655 18.3528L11.7552 13.9362C11.7424 13.8856 11.7387 13.834 11.7419 13.7835C11.3124 13.6496 11 13.2518 11 12.7824C11 12.2028 11.4754 11.7319 12.0598 11.7319C12.6443 11.7319 13.1197 12.2028 13.1197 12.7824C13.1197 13.1082 12.9688 13.3996 12.7328 13.5926L14.1227 14.9803C14.4741 15.3303 14.9616 15.5324 15.4603 15.5324C16.05 15.5324 16.6124 15.2544 16.9665 14.7894L19.251 11.7905C19.059 11.6001 18.9401 11.3383 18.9401 11.0485C18.9401 10.4695 19.4156 9.99854 20 9.99854C20.5844 9.99854 21.0598 10.4695 21.0598 11.0485C21.0598 11.3297 20.9473 11.5846 20.7655 11.7733C20.7661 11.7743 20.7667 11.7749 20.7674 11.776L23.0353 14.7829C23.3893 15.2518 23.9536 15.5324 24.545 15.5324C25.0483 15.5324 25.5216 15.3372 25.8776 14.9846L27.2764 13.6002C27.0352 13.4066 26.8804 13.112 26.8804 12.7824C26.8804 12.2028 27.3558 11.7319 27.9402 11.7319C28.5246 11.7319 29 12.2028 29 12.7824C29 13.2383 28.7035 13.627 28.2918 13.7717ZM27.0598 20.2991C27.0598 20.0227 26.8339 19.7985 26.5551 19.7985H13.501C13.2222 19.7985 12.9963 20.0227 12.9963 20.2991V21.4985C12.9963 21.7749 13.2222 21.9985 13.501 21.9985H26.5551C26.8339 21.9985 27.0598 21.7749 27.0598 21.4985V20.2991Z" fill="white"/>
<path d="M39.298 21.168C38.5793 21.168 37.9447 21.0467 37.394 20.804C36.8433 20.552 36.4093 20.1973 36.092 19.74C35.7747 19.2733 35.6113 18.7087 35.602 18.046H37.492C37.5107 18.5033 37.674 18.8907 37.982 19.208C38.2993 19.516 38.7333 19.67 39.284 19.67C39.76 19.67 40.138 19.558 40.418 19.334C40.698 19.1007 40.838 18.7927 40.838 18.41C40.838 18.0087 40.712 17.696 40.46 17.472C40.2173 17.248 39.8907 17.066 39.48 16.926C39.0693 16.786 38.6307 16.6367 38.164 16.478C37.408 16.2167 36.8293 15.8807 36.428 15.47C36.036 15.0593 35.84 14.5133 35.84 13.832C35.8307 13.2533 35.966 12.7587 36.246 12.348C36.5353 11.928 36.9273 11.606 37.422 11.382C37.9167 11.1487 38.486 11.032 39.13 11.032C39.7833 11.032 40.3573 11.1487 40.852 11.382C41.356 11.6153 41.748 11.942 42.028 12.362C42.3173 12.782 42.4713 13.2813 42.49 13.86H40.572C40.5627 13.5147 40.4273 13.2113 40.166 12.95C39.914 12.6793 39.5593 12.544 39.102 12.544C38.71 12.5347 38.3787 12.6327 38.108 12.838C37.8467 13.034 37.716 13.3233 37.716 13.706C37.716 14.0327 37.8187 14.294 38.024 14.49C38.2293 14.6767 38.5093 14.8353 38.864 14.966C39.2187 15.0967 39.6247 15.2367 40.082 15.386C40.5673 15.554 41.0107 15.75 41.412 15.974C41.8133 16.198 42.1353 16.4967 42.378 16.87C42.6207 17.234 42.742 17.7053 42.742 18.284C42.742 18.7973 42.6113 19.2733 42.35 19.712C42.0887 20.1507 41.7013 20.5053 41.188 20.776C40.6747 21.0373 40.0447 21.168 39.298 21.168ZM46.7275 21.168C45.8595 21.168 45.1875 20.8973 44.7115 20.356C44.2448 19.8147 44.0115 19.0213 44.0115 17.976V14.056H45.7895V17.808C45.7895 18.4053 45.9108 18.8627 46.1535 19.18C46.3962 19.4973 46.7788 19.656 47.3015 19.656C47.7962 19.656 48.2022 19.4787 48.5195 19.124C48.8462 18.7693 49.0095 18.2747 49.0095 17.64V14.056H50.8015V21H49.2195L49.0795 19.824C48.8648 20.2347 48.5522 20.5613 48.1415 20.804C47.7402 21.0467 47.2688 21.168 46.7275 21.168ZM55.4411 18.928C55.1051 18.928 54.7924 18.8907 54.5031 18.816L53.9851 19.334C54.1438 19.418 54.3584 19.488 54.6291 19.544C54.8998 19.6 55.3384 19.656 55.9451 19.712C56.8691 19.796 57.5411 20.0153 57.9611 20.37C58.3811 20.7247 58.5911 21.2147 58.5911 21.84C58.5911 22.2507 58.4791 22.638 58.2551 23.002C58.0311 23.3753 57.6858 23.674 57.2191 23.898C56.7524 24.1313 56.1551 24.248 55.4271 24.248C54.4378 24.248 53.6398 24.0613 53.0331 23.688C52.4264 23.324 52.1231 22.7733 52.1231 22.036C52.1231 21.4107 52.4264 20.8693 53.0331 20.412C52.8464 20.328 52.6831 20.2393 52.5431 20.146C52.4124 20.0527 52.2958 19.9547 52.1931 19.852V19.53L53.4111 18.242C52.8698 17.766 52.5991 17.1547 52.5991 16.408C52.5991 15.9413 52.7111 15.5167 52.9351 15.134C53.1684 14.7513 53.4951 14.448 53.9151 14.224C54.3351 14 54.8438 13.888 55.4411 13.888C55.8331 13.888 56.1971 13.944 56.5331 14.056H59.1651V15.148L57.9751 15.232C58.1618 15.5867 58.2551 15.9787 58.2551 16.408C58.2551 16.8747 58.1431 17.2993 57.9191 17.682C57.6951 18.0647 57.3684 18.368 56.9391 18.592C56.5191 18.816 56.0198 18.928 55.4411 18.928ZM55.4411 17.556C55.8051 17.556 56.1038 17.458 56.3371 17.262C56.5798 17.066 56.7011 16.786 56.7011 16.422C56.7011 16.058 56.5798 15.778 56.3371 15.582C56.1038 15.386 55.8051 15.288 55.4411 15.288C55.0584 15.288 54.7504 15.386 54.5171 15.582C54.2838 15.778 54.1671 16.058 54.1671 16.422C54.1671 16.786 54.2838 17.066 54.5171 17.262C54.7504 17.458 55.0584 17.556 55.4411 17.556ZM53.7611 21.854C53.7611 22.1993 53.9198 22.456 54.2371 22.624C54.5638 22.8013 54.9604 22.89 55.4271 22.89C55.8751 22.89 56.2391 22.7967 56.5191 22.61C56.7991 22.4327 56.9391 22.19 56.9391 21.882C56.9391 21.63 56.8458 21.42 56.6591 21.252C56.4818 21.084 56.1224 20.9813 55.5811 20.944C55.1984 20.916 54.8438 20.874 54.5171 20.818C54.2464 20.9673 54.0504 21.1307 53.9291 21.308C53.8171 21.4853 53.7611 21.6673 53.7611 21.854ZM63.2718 18.928C62.9358 18.928 62.6231 18.8907 62.3338 18.816L61.8158 19.334C61.9745 19.418 62.1891 19.488 62.4598 19.544C62.7305 19.6 63.1691 19.656 63.7758 19.712C64.6998 19.796 65.3718 20.0153 65.7918 20.37C66.2118 20.7247 66.4218 21.2147 66.4218 21.84C66.4218 22.2507 66.3098 22.638 66.0858 23.002C65.8618 23.3753 65.5165 23.674 65.0498 23.898C64.5831 24.1313 63.9858 24.248 63.2578 24.248C62.2685 24.248 61.4705 24.0613 60.8638 23.688C60.2571 23.324 59.9538 22.7733 59.9538 22.036C59.9538 21.4107 60.2571 20.8693 60.8638 20.412C60.6771 20.328 60.5138 20.2393 60.3738 20.146C60.2431 20.0527 60.1265 19.9547 60.0238 19.852V19.53L61.2418 18.242C60.7005 17.766 60.4298 17.1547 60.4298 16.408C60.4298 15.9413 60.5418 15.5167 60.7658 15.134C60.9991 14.7513 61.3258 14.448 61.7458 14.224C62.1658 14 62.6745 13.888 63.2718 13.888C63.6638 13.888 64.0278 13.944 64.3638 14.056H66.9958V15.148L65.8058 15.232C65.9925 15.5867 66.0858 15.9787 66.0858 16.408C66.0858 16.8747 65.9738 17.2993 65.7498 17.682C65.5258 18.0647 65.1991 18.368 64.7698 18.592C64.3498 18.816 63.8505 18.928 63.2718 18.928ZM63.2718 17.556C63.6358 17.556 63.9345 17.458 64.1678 17.262C64.4105 17.066 64.5318 16.786 64.5318 16.422C64.5318 16.058 64.4105 15.778 64.1678 15.582C63.9345 15.386 63.6358 15.288 63.2718 15.288C62.8891 15.288 62.5811 15.386 62.3478 15.582C62.1145 15.778 61.9978 16.058 61.9978 16.422C61.9978 16.786 62.1145 17.066 62.3478 17.262C62.5811 17.458 62.8891 17.556 63.2718 17.556ZM61.5918 21.854C61.5918 22.1993 61.7505 22.456 62.0678 22.624C62.3945 22.8013 62.7911 22.89 63.2578 22.89C63.7058 22.89 64.0698 22.7967 64.3498 22.61C64.6298 22.4327 64.7698 22.19 64.7698 21.882C64.7698 21.63 64.6765 21.42 64.4898 21.252C64.3125 21.084 63.9531 20.9813 63.4118 20.944C63.0291 20.916 62.6745 20.874 62.3478 20.818C62.0771 20.9673 61.8811 21.1307 61.7598 21.308C61.6478 21.4853 61.5918 21.6673 61.5918 21.854ZM71.2631 21.168C70.5631 21.168 69.9424 21.0187 69.4011 20.72C68.8597 20.4213 68.4351 20.0013 68.1271 19.46C67.8191 18.9187 67.6651 18.2933 67.6651 17.584C67.6651 16.8653 67.8144 16.226 68.1131 15.666C68.4211 15.106 68.8411 14.672 69.3731 14.364C69.9144 14.0467 70.5491 13.888 71.2771 13.888C71.9584 13.888 72.5604 14.0373 73.0831 14.336C73.6057 14.6347 74.0117 15.0453 74.3011 15.568C74.5997 16.0813 74.7491 16.6553 74.7491 17.29C74.7491 17.3927 74.7444 17.5 74.7351 17.612C74.7351 17.724 74.7304 17.8407 74.7211 17.962H69.4431C69.4804 18.5033 69.6671 18.928 70.0031 19.236C70.3484 19.544 70.7637 19.698 71.2491 19.698C71.6131 19.698 71.9164 19.6187 72.1591 19.46C72.4111 19.292 72.5977 19.0773 72.7191 18.816H74.5391C74.4084 19.2547 74.1891 19.656 73.8811 20.02C73.5824 20.3747 73.2091 20.6547 72.7611 20.86C72.3224 21.0653 71.8231 21.168 71.2631 21.168ZM71.2771 15.344C70.8384 15.344 70.4511 15.47 70.1151 15.722C69.7791 15.9647 69.5644 16.338 69.4711 16.842H72.9291C72.9011 16.3847 72.7331 16.0207 72.4251 15.75C72.1171 15.4793 71.7344 15.344 71.2771 15.344ZM78.9862 21.168C78.3702 21.168 77.8289 21.07 77.3622 20.874C76.8956 20.6687 76.5222 20.3887 76.2422 20.034C75.9622 19.6793 75.7942 19.2687 75.7382 18.802H77.5442C77.6002 19.0727 77.7496 19.306 77.9922 19.502C78.2442 19.6887 78.5662 19.782 78.9582 19.782C79.3502 19.782 79.6349 19.7027 79.8122 19.544C79.9989 19.3853 80.0922 19.2033 80.0922 18.998C80.0922 18.6993 79.9616 18.4987 79.7002 18.396C79.4389 18.284 79.0749 18.1767 78.6082 18.074C78.3096 18.0087 78.0062 17.9293 77.6982 17.836C77.3902 17.7427 77.1056 17.626 76.8442 17.486C76.5922 17.3367 76.3869 17.15 76.2282 16.926C76.0696 16.6927 75.9902 16.408 75.9902 16.072C75.9902 15.456 76.2329 14.938 76.7182 14.518C77.2129 14.098 77.9036 13.888 78.7902 13.888C79.6116 13.888 80.2649 14.0793 80.7502 14.462C81.2449 14.8447 81.5389 15.372 81.6322 16.044H79.9382C79.8356 15.5307 79.4482 15.274 78.7762 15.274C78.4402 15.274 78.1789 15.3393 77.9922 15.47C77.8149 15.6007 77.7262 15.764 77.7262 15.96C77.7262 16.1653 77.8616 16.3287 78.1322 16.45C78.4029 16.5713 78.7622 16.6833 79.2102 16.786C79.6956 16.898 80.1389 17.024 80.5402 17.164C80.9509 17.2947 81.2776 17.4953 81.5202 17.766C81.7629 18.0273 81.8842 18.4053 81.8842 18.9C81.8936 19.3293 81.7816 19.7167 81.5482 20.062C81.3149 20.4073 80.9789 20.678 80.5402 20.874C80.1016 21.07 79.5836 21.168 78.9862 21.168ZM86.207 21C85.479 21 84.8956 20.8227 84.457 20.468C84.0183 20.1133 83.799 19.4833 83.799 18.578V15.554H82.609V14.056H83.799L84.009 12.194H85.591V14.056H87.467V15.554H85.591V18.592C85.591 18.928 85.661 19.1613 85.801 19.292C85.9503 19.4133 86.2023 19.474 86.557 19.474H87.425V21H86.207ZM92.0618 21.168C91.3618 21.168 90.7411 21.0187 90.1998 20.72C89.6585 20.4213 89.2338 20.0013 88.9258 19.46C88.6178 18.9187 88.4638 18.2933 88.4638 17.584C88.4638 16.8653 88.6131 16.226 88.9118 15.666C89.2198 15.106 89.6398 14.672 90.1718 14.364C90.7131 14.0467 91.3478 13.888 92.0758 13.888C92.7571 13.888 93.3591 14.0373 93.8818 14.336C94.4045 14.6347 94.8105 15.0453 95.0998 15.568C95.3985 16.0813 95.5478 16.6553 95.5478 17.29C95.5478 17.3927 95.5431 17.5 95.5338 17.612C95.5338 17.724 95.5291 17.8407 95.5198 17.962H90.2418C90.2791 18.5033 90.4658 18.928 90.8018 19.236C91.1471 19.544 91.5625 19.698 92.0478 19.698C92.4118 19.698 92.7151 19.6187 92.9578 19.46C93.2098 19.292 93.3965 19.0773 93.5178 18.816H95.3378C95.2071 19.2547 94.9878 19.656 94.6798 20.02C94.3811 20.3747 94.0078 20.6547 93.5598 20.86C93.1211 21.0653 92.6218 21.168 92.0618 21.168ZM92.0758 15.344C91.6371 15.344 91.2498 15.47 90.9138 15.722C90.5778 15.9647 90.3631 16.338 90.2698 16.842H93.7278C93.6998 16.3847 93.5318 16.0207 93.2238 15.75C92.9158 15.4793 92.5331 15.344 92.0758 15.344ZM100.107 21.168C99.4537 21.168 98.8703 21.0093 98.357 20.692C97.8437 20.3747 97.4377 19.9407 97.139 19.39C96.8403 18.8393 96.691 18.214 96.691 17.514C96.691 16.814 96.8403 16.1933 97.139 15.652C97.4377 15.1013 97.8437 14.672 98.357 14.364C98.8703 14.0467 99.4537 13.888 100.107 13.888C100.63 13.888 101.087 13.986 101.479 14.182C101.871 14.378 102.188 14.6533 102.431 15.008V10.92H104.223V21H102.627L102.431 20.006C102.207 20.314 101.908 20.5847 101.535 20.818C101.171 21.0513 100.695 21.168 100.107 21.168ZM100.485 19.6C101.064 19.6 101.535 19.4087 101.899 19.026C102.272 18.634 102.459 18.1347 102.459 17.528C102.459 16.9213 102.272 16.4267 101.899 16.044C101.535 15.652 101.064 15.456 100.485 15.456C99.9157 15.456 99.4443 15.6473 99.071 16.03C98.6977 16.4127 98.511 16.9073 98.511 17.514C98.511 18.1207 98.6977 18.62 99.071 19.012C99.4443 19.404 99.9157 19.6 100.485 19.6Z" fill="white"/>
</svg>
