<svg width="110" height="111" viewBox="0 0 110 111" fill="none" xmlns="http://www.w3.org/2000/svg">
<g filter="url(#filter0_d_1_954)">
<path fill-rule="evenodd" clip-rule="evenodd" d="M50 6.99872H59.9999C76.5685 6.99872 89.9999 20.4299 89.9999 36.9987V46.9987C89.9999 63.567 76.5685 76.9986 59.9999 76.9986H50C33.4315 76.9986 19.9999 63.567 19.9999 46.9987V36.9987C19.9999 20.4299 33.4315 6.99872 50 6.99872Z" fill="white"/>
</g>
<path d="M47.09 55.2988C45.41 55.2988 43.99 54.8388 42.83 53.9188C41.69 52.9788 40.83 51.6988 40.25 50.0788C39.67 48.4588 39.38 46.5988 39.38 44.4988C39.38 42.3988 39.67 40.5388 40.25 38.9188C40.83 37.2988 41.69 36.0288 42.83 35.1088C43.99 34.1688 45.41 33.6988 47.09 33.6988C48.79 33.6988 50.21 34.1688 51.35 35.1088C52.49 36.0288 53.35 37.2988 53.93 38.9188C54.53 40.5388 54.83 42.3988 54.83 44.4988C54.83 46.5988 54.53 48.4588 53.93 50.0788C53.35 51.6988 52.49 52.9788 51.35 53.9188C50.21 54.8388 48.79 55.2988 47.09 55.2988ZM47.09 52.3588C48.53 52.3588 49.65 51.6788 50.45 50.3188C51.27 48.9588 51.68 47.0188 51.68 44.4988C51.68 41.9788 51.27 40.0388 50.45 38.6788C49.65 37.3188 48.53 36.6388 47.09 36.6388C45.65 36.6388 44.52 37.3188 43.7 38.6788C42.9 40.0388 42.5 41.9788 42.5 44.4988C42.5 47.0188 42.9 48.9588 43.7 50.3188C44.52 51.6788 45.65 52.3588 47.09 52.3588ZM59.3427 49.2688C59.6427 49.7088 60.0027 50.1788 60.4227 50.6788C60.8627 51.1788 61.3727 51.5988 61.9527 51.9388C62.5527 52.2788 63.2327 52.4488 63.9927 52.4488C64.5927 52.4488 65.1927 52.2988 65.7927 51.9988C66.3927 51.6788 66.8927 51.2188 67.2927 50.6188C67.7127 49.9988 67.9227 49.2488 67.9227 48.3688C67.9227 47.4688 67.7527 46.7488 67.4127 46.2088C67.0927 45.6688 66.6627 45.2788 66.1227 45.0388C65.5827 44.7988 64.9927 44.6788 64.3527 44.6788C63.7327 44.6788 63.1027 44.7788 62.4627 44.9788C61.8427 45.1588 61.2627 45.3588 60.7227 45.5788L59.8227 43.2088L65.4627 36.9988H57.9927V33.9988H70.0227L70.6227 35.1988L64.7427 41.7088C65.9027 41.7088 66.9527 41.9988 67.8927 42.5788C68.8527 43.1388 69.6127 43.9088 70.1727 44.8888C70.7527 45.8688 71.0427 46.9688 71.0427 48.1888C71.0427 49.6288 70.6927 50.8888 69.9927 51.9688C69.3127 53.0288 68.4127 53.8488 67.2927 54.4288C66.1927 55.0088 65.0127 55.2988 63.7527 55.2988C62.5727 55.2988 61.5527 55.1088 60.6927 54.7288C59.8527 54.3288 59.1227 53.7888 58.5027 53.1088C57.8827 52.4288 57.3227 51.6788 56.8227 50.8588L59.3427 49.2688Z" fill="#EA3A60"/>
<defs>
<filter id="filter0_d_1_954" x="0" y="0.998718" width="110" height="110" filterUnits="userSpaceOnUse" color-interpolation-filters="sRGB">
<feFlood flood-opacity="0" result="BackgroundImageFix"/>
<feColorMatrix in="SourceAlpha" type="matrix" values="0 0 0 0 0 0 0 0 0 0 0 0 0 0 0 0 0 0 127 0" result="hardAlpha"/>
<feOffset dy="14"/>
<feGaussianBlur stdDeviation="10"/>
<feColorMatrix type="matrix" values="0 0 0 0 0.296285 0 0 0 0 0.468577 0 0 0 0 0.670833 0 0 0 0.1 0"/>
<feBlend mode="normal" in2="BackgroundImageFix" result="effect1_dropShadow_1_954"/>
<feBlend mode="normal" in="SourceGraphic" in2="effect1_dropShadow_1_954" result="shape"/>
</filter>
</defs>
</svg>
