<svg width="110" height="111" viewBox="0 0 110 111" fill="none" xmlns="http://www.w3.org/2000/svg">
<g filter="url(#filter0_d_1_942)">
<path fill-rule="evenodd" clip-rule="evenodd" d="M50 6.99872H59.9999C76.5685 6.99872 89.9999 20.4299 89.9999 36.9987V46.9987C89.9999 63.567 76.5685 76.9986 59.9999 76.9986H50C33.4315 76.9986 19.9999 63.567 19.9999 46.9987V36.9987C19.9999 20.4299 33.4315 6.99872 50 6.99872Z" fill="white"/>
</g>
<path d="M47.09 55.2988C45.41 55.2988 43.99 54.8388 42.83 53.9188C41.69 52.9788 40.83 51.6988 40.25 50.0788C39.67 48.4588 39.38 46.5988 39.38 44.4988C39.38 42.3988 39.67 40.5388 40.25 38.9188C40.83 37.2988 41.69 36.0288 42.83 35.1088C43.99 34.1688 45.41 33.6988 47.09 33.6988C48.79 33.6988 50.21 34.1688 51.35 35.1088C52.49 36.0288 53.35 37.2988 53.93 38.9188C54.53 40.5388 54.83 42.3988 54.83 44.4988C54.83 46.5988 54.53 48.4588 53.93 50.0788C53.35 51.6988 52.49 52.9788 51.35 53.9188C50.21 54.8388 48.79 55.2988 47.09 55.2988ZM47.09 52.3588C48.53 52.3588 49.65 51.6788 50.45 50.3188C51.27 48.9588 51.68 47.0188 51.68 44.4988C51.68 41.9788 51.27 40.0388 50.45 38.6788C49.65 37.3188 48.53 36.6388 47.09 36.6388C45.65 36.6388 44.52 37.3188 43.7 38.6788C42.9 40.0388 42.5 41.9788 42.5 44.4988C42.5 47.0188 42.9 48.9588 43.7 50.3188C44.52 51.6788 45.65 52.3588 47.09 52.3588ZM69.4227 54.9988H59.4027V51.8788H62.7327V37.9288L59.7027 39.5188L58.8327 36.6988L64.4427 33.6988H66.0027V51.8788H69.4227V54.9988Z" fill="#EA3A60"/>
<defs>
<filter id="filter0_d_1_942" x="0" y="0.998718" width="110" height="110" filterUnits="userSpaceOnUse" color-interpolation-filters="sRGB">
<feFlood flood-opacity="0" result="BackgroundImageFix"/>
<feColorMatrix in="SourceAlpha" type="matrix" values="0 0 0 0 0 0 0 0 0 0 0 0 0 0 0 0 0 0 127 0" result="hardAlpha"/>
<feOffset dy="14"/>
<feGaussianBlur stdDeviation="10"/>
<feColorMatrix type="matrix" values="0 0 0 0 0.296285 0 0 0 0 0.468577 0 0 0 0 0.670833 0 0 0 0.1 0"/>
<feBlend mode="normal" in2="BackgroundImageFix" result="effect1_dropShadow_1_942"/>
<feBlend mode="normal" in="SourceGraphic" in2="effect1_dropShadow_1_942" result="shape"/>
</filter>
</defs>
</svg>
